inDegrees=no
nColumns=24
nRows=18
DataType=double
version=3
OpenSimVersion=4.5
endheader
time	pelvis_tilt	pelvis_list	pelvis_rotation	pelvis_tz	pelvis_ty	pelvis_tx	hip_flexion_r	hip_adduction_r	hip_rotation_r	knee_angle_r	ankle_angle_r	subtalar_angle_r	mtp_angle_r	hip_flexion_l	hip_adduction_l	hip_rotation_l	knee_angle_l	ankle_angle_l	subtalar_angle_l	mtp_angle_l	lumbar_extension	lumbar_bending	lumbar_rotation
0	0.02516066762549116	-0.05117296347919117	-0.1003629235982863	0	0.8538997	-0	-0.2410107270963479	0.06880444394861367	-0.0315821324952361	-0.3089795967599643	0.3700175540008023	0.197608935880082	0	0.4876016961008627	-0.05869368893449037	-0.1792250664406324	-0.2438625865419932	-0.04313639121421981	0.1582625239949752	0	-0.1088829968457896	0.04859253253312135	0.2272937036667154
0.01000000000000001	0.02432663063782612	-0.04495165120260396	-0.1021970706602393	0.000131970000000009	0.85276112	0.01408909	-0.2493560656895827	0.0605396379886585	-0.02318244557082463	-0.3230251391513764	0.362027756778557	0.2007908147470651	0	0.4840927578909532	-0.05078327295181727	-0.1728382001983039	-0.2685877624980431	-0.04939887499660856	0.156750966411921	0	-0.1031839810932342	0.03816560466728104	0.2265147937648123
0.02000000000000002	0.0218000791239226	-0.03408935958639166	-0.1045221457699359	0.0004368299999999992	0.8519188600000001	0.0285149	-0.2508828697708506	0.0462251572892078	-0.02262662871536622	-0.3451885822669387	0.335480032619351	0.2084465458275689	0	0.4832819404032639	-0.03972867529414198	-0.1838585698549525	-0.2880315482265474	-0.09908039664079966	0.1434465166517786	0	-0.09409425590883232	0.02053059439973955	0.2257132886558799
0.03000000000000003	0.01673541386653975	-0.02133113313628297	-0.1012300375047686	-6.533000000000233e-05	0.85143293	0.04277663	-0.2489699798349527	0.03183085552721346	-0.02129897787185808	-0.3669526146371638	0.3084033284853968	0.2127419927538788	0	0.4862999710761954	-0.02240455092694736	-0.1751729292330918	-0.3002143883228345	-0.1398139866160807	0.106792100255882	0	-0.08206884451107518	0.002428487249540427	0.2197878426128169
0.04000000000000004	0.01145032215698495	-0.007997921193705838	-0.09439912355389789	-0.001317869999999999	0.8513397	0.057177	-0.2444529221703317	0.01715643854318369	-0.02207314466698602	-0.3919551902574659	0.2766302798338058	0.2154977255729768	0	0.4891075684484115	-0.0009665841091725583	-0.156443550575193	-0.3162235071060175	-0.1477601333282664	0.06711189903825326	0	-0.06967438114858875	-0.01543155634697525	0.2108068177559598
0.05000000000000004	0.007602999834057421	0.003194051675125816	-0.08680683985576355	-0.002568819999999999	0.85178265	0.07162925000000001	-0.2400462314481582	0.005735941683539894	-0.01895475668940027	-0.4187972872333669	0.2366794574616736	0.2176788581286734	0	0.4900695070147139	0.01886186276169334	-0.1391960232983477	-0.3389318510897645	-0.1405103218494793	0.0336520093868302	0	-0.0599192640221627	-0.03102664445980876	0.1999522428590776
0.05999999999999983	0.007446217859123713	0.0156095507662718	-0.08239822046935548	-0.003687020000000013	0.8529189700000001	0.08578150000000001	-0.2335328218537432	-0.007324467763008251	-0.009604699590034346	-0.4543193055617029	0.1900009051716339	0.2170461256602772	0	0.4853404105209987	0.03849137229202796	-0.1285027958877649	-0.3626202283408342	-0.1178982067685739	0.01660065275458596	0	-0.05625849647902963	-0.04671453609229395	0.1875023181689505
0.06999999999999984	0.003796243003404211	0.02825401792241362	-0.07397740588692876	-0.005062050000000012	0.8541211400000001	0.10055159	-0.2249471564839635	-0.01875435763562043	-0.0029701795044283	-0.4847304851426029	0.1299434482482263	0.220542796649006	0	0.4820513249792447	0.06032105906179111	-0.1084167169517548	-0.3832165802890707	-0.09053382978785736	-0.004040975477908187	0	-0.04534411909705834	-0.06359814371960833	0.1811331164039815
0.07999999999999985	0.003285860886480749	0.04045928406806557	-0.06938178534551856	-0.006033570000000016	0.85577345	0.11481805	-0.213079099782776	-0.03000781915546551	0.008279768493099591	-0.5227048205734213	0.06206020827743705	0.2227306417410058	0	0.4761333447565901	0.07868462438792061	-0.09158360833195181	-0.4054261585654155	-0.06870102114766116	-0.02608900485695801	0	-0.03983214452085258	-0.07991253402800041	0.1728002598819582
0.08999999999999986	0.003242095170935414	0.05173630734947632	-0.06677219703589271	-0.006838459999999991	0.85747779	0.12873236	-0.1959473620118312	-0.04095369466898047	0.020729893023426	-0.567293363598945	-0.006966679280606691	0.2298835750544696	0	0.4664052566716251	0.09554885118108915	-0.07441726975765202	-0.4214879653480577	-0.04723835530297677	-0.04341888549455863	0	-0.03568387353091464	-0.09519236035098647	0.1666779082361462
0.09999999999999987	0.00390901977058006	0.06255237487324722	-0.06612406803887484	-0.007497379999999998	0.85914232	0.14216766	-0.1750278237808114	-0.05171850501350456	0.03490758947687111	-0.6160343506966484	-0.05967265545657413	0.2406496753718438	0	0.4552916986502248	0.1103900174454532	-0.0646995984957946	-0.4351129950908114	-0.02855939990529978	-0.05381480793530311	0	-0.03358241560463741	-0.1095345717142575	0.1605912155868146
0.1099999999999999	0.0002783222116951352	0.07524150470231916	-0.06828109267883832	-0.00795942999999999	0.86052714	0.15515007	-0.1428329650027959	-0.06668077967466453	0.04638904038984448	-0.6737580804042587	-0.07602109818587018	0.2628255417410218	0	0.4439053172178709	0.1255201255854789	-0.05875150017343588	-0.437207274826941	-0.01431280256537491	-0.06333669025606692	0	-0.02644604372044584	-0.1252677851840938	0.1581448221318134
0.1199999999999999	0.003486039171553823	0.08592259596400059	-0.0696705797907121	-0.008293159999999994	0.86240429	0.16757902	-0.1155551759006659	-0.07838647223526339	0.05577567924126636	-0.7322471654377354	-0.06834202524648308	0.2539648363921386	0	0.4248840003030508	0.1375225047457621	-0.06115981106775741	-0.4373397486332929	0.003575342926492975	-0.06314129837737813	0	-0.03008455081070019	-0.1391620031660349	0.147051771554591
0.1299999999999999	0.0007526274177417786	0.09720196618139758	-0.07587194676367956	-0.008296440000000016	0.86403456	0.17982756	-0.07640251196862549	-0.09181405061081085	0.06219024752401539	-0.7922462863016914	-0.06615724757064366	0.235523719106026	0	0.4056572129312432	0.1478453006833748	-0.06970000834159455	-0.4229720331227284	0.01672733136968959	-0.05839409007841616	0	-0.02513503511495424	-0.1522790256829971	0.1435390379516902
0.1399999999999999	-9.887235092365664e-05	0.1029229713164584	-0.08184255041678902	-0.008464240000000012	0.86584218	0.19155559	-0.03783471031238931	-0.1004978376930059	0.06781580865153972	-0.8456163197664039	-0.06744115173645054	0.2161378050048593	0	0.3857891345199864	0.152745853435884	-0.07973137269136775	-0.4110258362855999	0.028185362756628	-0.05251999877779682	0	-0.02417336637655407	-0.1580035178321109	0.1360626396263617
0.1499999999999999	-0.001387959793433369	0.1065274679423246	-0.08978447411167037	-0.008444859999999998	0.86771622	0.20303787	0.002037398583142518	-0.1070996597332075	0.0736264874280451	-0.8927288542836045	-0.06096846084801746	0.1964177207403278	0	0.3648101671298046	0.1543110114765304	-0.09518997274056973	-0.3957305203400353	0.03847463737702814	-0.04160006723454691	0	-0.02293520676684317	-0.1606864934597468	0.1297930535756479
0.1599999999999999	-0.002695359731465711	0.10733221844176	-0.0956938649958035	-0.008662000000000003	0.86968393	0.21420246	0.04182666943998571	-0.1106768282740981	0.07663523294935594	-0.9341122165513019	-0.04781453596201574	0.1825552244666076	0	0.3430923529980346	0.1538690696753159	-0.1102432019195718	-0.3793833468141712	0.05095144572268952	-0.02572040091824769	0	-0.02269285261583927	-0.1598573784637784	0.1219949886257158
0.1699999999999999	-0.003259158849999446	0.1061867062665024	-0.09956383901655008	-0.008906520000000001	0.87191719	0.22522494	0.07976903724569163	-0.1097135981641491	0.08187999307922532	-0.9678932261902067	-0.03948863440252867	0.1756178379195018	0	0.3197078625279455	0.1526041752866558	-0.1222990035138634	-0.3615548891392606	0.06064111090777068	-0.01320507036346799	0	-0.02508150412146632	-0.1567367435493136	0.1083551075272911
